<svg xmlns="http://www.w3.org/2000/svg" width="18.001" height="18.001" viewBox="0 0 18.001 18.001">
  <path id="Search_Information._Attribute_as_Designmodo_from_Flaticon.com" data-name="Search Information. Attribute as Designmodo from Flaticon.com" d="M1092,682.015a1.976,1.976,0,0,1,.6-1.415l0,0,4.693-4.693a6.757,6.757,0,1,1,2.806,2.808L1095.4,683.4h0a1.983,1.983,0,0,1-3.4-1.391Zm1.292-.716.005,0a.99.99,0,1,0,1.4,1.4l4.535-4.535a6.806,6.806,0,0,1-1.4-1.406Zm4.333-8.548a5.625,5.625,0,1,0,5.625-5.625A5.626,5.626,0,0,0,1097.625,672.75Zm1.688,0a3.937,3.937,0,0,1,3.938-3.937.281.281,0,1,1,0,.563,3.375,3.375,0,0,0-3.375,3.375.281.281,0,0,1-.562,0Z" transform="translate(-1092 -666)" fill="#4f4e4c"/>
</svg>
